<?xml version="1.0"?>
<!-- Converted with SVG Converter - Version 0.9.5 (Compiled Mon May 30 09:08:51 2011) - Copyright (C) 2011 Nokia -->
<svg xmlns="http://www.w3.org/2000/svg" width="708.99884" version="1.1" height="708.6687" xmlns:xlink="http://www.w3.org/1999/xlink" baseProfile="tiny" id="svg2">
 <defs id="defs4">
  <linearGradient id="linearGradient3767">
   <stop offset="0" style="stop-color:#884600;stop-opacity:1;" id="stop3769"/>
   <stop offset="0.5" style="stop-color:#ff8200;stop-opacity:1;" id="stop5219"/>
   <stop offset="1" style="stop-color:#ff8200;stop-opacity:0;" id="stop5217"/>
  </linearGradient>
  <linearGradient id="linearGradient3773" y1="504.26309" x1="64.595078" y2="206.29189" x2="357.63608" gradientUnits="userSpaceOnUse">
   <stop offset="0" style="stop-color:#884600;stop-opacity:1;" id="stop3769"/>
   <stop offset="0.5" style="stop-color:#ff8200;stop-opacity:1;" id="stop5219"/>
   <stop offset="1" style="stop-color:#ff8200;stop-opacity:0;" id="stop5217"/>
  </linearGradient>
 </defs>
 <metadata id="metadata7"/>
 <g id="layer1" transform="translate(-14.418579,-160.61829)">
  <path style="fill:url(#linearGradient3773);fill-opacity:1;fill-rule:evenodd;stroke:#000000;stroke-width:11.71428585;stroke-miterlimit:4;stroke-opacity:1;stroke-dasharray:none" id="path2816" d="m 440,380.93362 c 0,129.39243 -104.89329,234.28573 -234.28572,234.28573 -129.392432,0 -234.285722,-104.8933 -234.285722,-234.28573 0,-129.39243 104.89329,-234.28572 234.285722,-234.28572 C 335.10671,146.6479 440,251.54119 440,380.93362 z" transform="matrix(1.4748635,0,0,1.4748635,65.196042,-46.71604)"/>
  <path style="fill:none;stroke:#000000;stroke-width:17.27697372px;stroke-linecap:butt;stroke-linejoin:miter;stroke-opacity:1" id="path3592" d="M 377.84631,169.25753 C 114.87462,168.42651 115.95199,853.36043 358.90574,860.21694"/>
  <path style="fill:none;stroke:#000000;stroke-width:17.27697372px;stroke-linecap:butt;stroke-linejoin:miter;stroke-opacity:1" id="path3592-1" d="M 123.37234,270.7423 C 99.263243,348.93219 90.442578,430.93407 189.34606,447.65818 354.23457,458.20473 307.7367,319.17555 640.1341,304.36365"/>
  <path style="fill:none;stroke:#000000;stroke-width:17.27697372px;stroke-linecap:butt;stroke-linejoin:miter;stroke-opacity:1" id="path3592-1-7" d="M 93.002048,718.56834 C 106.7741,667.96239 161.01851,652.18802 192.3348,651.88857 295.18481,642.53206 316.65835,795.33312 645.26761,723.69926"/>
  <path style="fill:none;stroke:#000000;stroke-width:17.27697372px;stroke-linecap:butt;stroke-linejoin:miter;stroke-opacity:1" id="path3592-4" d="M 25.342239,457.91552 C 146.56195,651.10923 714.77892,529.88963 714.77892,529.88963"/>
 </g>
</svg>
